<?xml version="1.0" encoding="UTF-8"?>
<svg xmlns="http://www.w3.org/2000/svg" id="Layer_1" data-name="Layer 1" viewBox="0 0 24 24">
  <path d="m3.147,6.559c-.167.819-.191,1.645-.074,2.452.13.893-.119,1.714-.685,2.255-1.128,1.078-1.609,2.646-1.289,4.196.356,1.724,1.761,3.109,3.496,3.45.271.053.448.315.395.587-.047.238-.256.403-.49.403-2.321-.287-3.943-2.125-4.38-4.237-.391-1.89.199-3.805,1.577-5.122.329-.314.469-.82.387-1.388-.135-.923-.107-1.863.083-2.796C2.804,3.222,5.338.724,8.473.143c3.574-.669,7.061,1.056,8.675,4.278.194.388.56.668,1.001.767,3.521.79,5.98,3.984,5.847,7.597-.017.447-.076.895-.176,1.328-.062.27-.325.441-.6.375-.269-.062-.437-.33-.375-.6.086-.372.137-.756.15-1.141.116-3.131-2.014-5.899-5.065-6.583-.736-.166-1.347-.638-1.677-1.296-1.412-2.819-4.465-4.324-7.598-3.743-2.738.508-4.952,2.691-5.508,5.434Zm20.731,13.977c-.376,1.642-1.683,2.944-3.328,3.319-.316.073-.641.113-.962.12-.863.017-3.043.025-5.139.025-1.979,0-3.882-.008-4.534-.026-.235-.006-.478-.041-.72-.104-1.006-.264-1.826-1.084-2.089-2.089-.387-1.47.332-2.966,1.709-3.557.24-.103.362-.348.306-.61-.174-.812-.161-1.64.04-2.462.523-2.145,2.337-3.799,4.515-4.116,2.514-.362,4.938,1.005,5.905,3.335.235.563.765.687,1.094.761,2.347.633,3.754,3.007,3.203,5.404Zm-3.463-4.439h-.002c-.392-.089-1.321-.301-1.756-1.342-.705-1.701-2.364-2.777-4.174-2.777-.22,0-.44.016-.663.049-1.779.259-3.261,1.61-3.688,3.362-.165.675-.176,1.353-.034,2.016.157.731-.208,1.447-.889,1.739-.788.338-1.431,1.266-1.137,2.384.174.662.714,1.202,1.375,1.376.167.043.333.067.493.071,1.336.039,7.957.034,9.626,0,.253-.005.509-.037.759-.095,1.255-.286,2.29-1.318,2.577-2.568.43-1.872-.663-3.723-2.488-4.216Z"/>
</svg>
