<?xml version="1.0" encoding="UTF-8"?>
<svg xmlns="http://www.w3.org/2000/svg" id="Layer_1" data-name="Layer 1" viewBox="0 0 24 24">
  <path d="m23.979,14.359c-.077-.267-.356-.417-.62-.339l-3.34.982c-.337.099-.622.286-.853.523l-3.166-1.816v-3.421l3.144-1.803c.239.254.541.453.899.554l3.321.94c.045.013.091.019.136.019.219,0,.419-.144.481-.364.075-.266-.079-.542-.346-.617l-3.32-.94c-.524-.148-.836-.697-.693-1.224l.907-3.346c.072-.267-.085-.541-.352-.613-.269-.071-.541.086-.613.352l-.907,3.346c-.094.345-.081.693.004,1.019l-3.08,1.766-3.081-1.779v-3.79c.342-.088.658-.259.914-.515l2.439-2.439c.195-.195.195-.512,0-.707s-.512-.195-.707,0l-2.439,2.439c-.391.391-1.023.391-1.414,0L8.854.146c-.195-.195-.512-.195-.707,0s-.195.512,0,.707l2.439,2.439c.256.256.572.427.914.515v3.79l-3.081,1.779-3.08-1.766c.085-.326.097-.673.004-1.019l-.907-3.346c-.072-.267-.344-.424-.613-.352-.267.072-.424.347-.352.613l.907,3.346c.143.526-.169,1.075-.692,1.224l-3.321.94c-.267.075-.421.352-.346.617.062.221.263.364.481.364.045,0,.091-.006.136-.019l3.322-.94c.357-.101.659-.3.898-.554l3.144,1.802v3.37l-3.199,1.834c-.226-.221-.499-.397-.82-.491l-3.34-.982c-.263-.077-.543.073-.62.339-.078.265.073.542.339.62l3.34.982c.518.152.824.699.683,1.221l-.911,3.36c-.072.267.085.541.352.613.044.012.088.018.131.018.221,0,.422-.146.482-.369l.911-3.36c.101-.373.084-.751-.022-1.098l3.175-1.82,3,1.732v3.953c-.339.083-.66.242-.914.496l-2.439,2.439c-.195.195-.195.512,0,.707s.512.195.707,0l2.439-2.439c.391-.391,1.023-.391,1.414,0l2.439,2.439c.098.098.226.146.354.146s.256-.049.354-.146c.195-.195.195-.512,0-.707l-2.439-2.439c-.254-.254-.575-.413-.914-.496v-3.953l2.956-1.707,3.209,1.84c-.094.335-.109.696-.012,1.053l.911,3.36c.061.223.262.369.482.369.043,0,.087-.006.131-.018.267-.072.424-.347.352-.613l-.911-3.36c-.142-.521.165-1.068.683-1.221l3.34-.982c.266-.078.417-.355.339-.62Zm-8.979-.699l-3,1.732-3-1.732v-3.464l3-1.732,3,1.732v3.464Z"/>
</svg>
