<?xml version="1.0" encoding="UTF-8"?>
<svg xmlns="http://www.w3.org/2000/svg" id="Layer_1" data-name="Layer 1" viewBox="0 0 24 24">
  <path d="m0,11.5c0-.276.224-.5.5-.5h7c.276,0,.5.224.5.5s-.224.5-.5.5H.5c-.276,0-.5-.224-.5-.5Zm20.5-.5h-.206c1.032-.825,1.706-2.079,1.706-3.5,0-2.481-2.019-4.5-4.5-4.5s-4.5,2.019-4.5,4.5c0,.276.224.5.5.5s.5-.224.5-.5c0-1.93,1.57-3.5,3.5-3.5s3.5,1.57,3.5,3.5-1.57,3.5-3.5,3.5h-7c-.276,0-.5.224-.5.5s.224.5.5.5h10c1.378,0,2.5,1.121,2.5,2.5s-1.122,2.5-2.5,2.5-2.5-1.121-2.5-2.5c0-.276-.224-.5-.5-.5s-.5.224-.5.5c0,1.93,1.57,3.5,3.5,3.5s3.5-1.57,3.5-3.5-1.57-3.5-3.5-3.5Zm-9.5,5H.5c-.276,0-.5.224-.5.5s.224.5.5.5h10.5c1.654,0,3,1.346,3,3s-1.346,3-3,3-3-1.346-3-3v-.5c0-.276-.224-.5-.5-.5s-.5.224-.5.5v.5c0,2.206,1.794,4,4,4s4-1.794,4-4-1.794-4-4-4ZM.5,7h7c1.93,0,3.5-1.57,3.5-3.5s-1.57-3.5-3.5-3.5-3.5,1.57-3.5,3.5c0,.276.224.5.5.5s.5-.224.5-.5c0-1.379,1.122-2.5,2.5-2.5s2.5,1.121,2.5,2.5-1.122,2.5-2.5,2.5H.5c-.276,0-.5.224-.5.5s.224.5.5.5Z"/>
</svg>
